<svg xmlns="http://www.w3.org/2000/svg" width="18" height="19" viewBox="0 0 18 19" fill="none">
  <g clip-path="url(#clip0_1_1710)">
    <path d="M2.25 9.5C2.25 10.3864 2.42459 11.2642 2.76381 12.0831C3.10303 12.9021 3.60023 13.6462 4.22703 14.273C4.85382 14.8998 5.59794 15.397 6.41689 15.7362C7.23583 16.0754 8.11358 16.25 9 16.25C9.88642 16.25 10.7642 16.0754 11.5831 15.7362C12.4021 15.397 13.1462 14.8998 13.773 14.273C14.3998 13.6462 14.897 12.9021 15.2362 12.0831C15.5754 11.2642 15.75 10.3864 15.75 9.5C15.75 7.70979 15.0388 5.9929 13.773 4.72703C12.5071 3.46116 10.7902 2.75 9 2.75C7.20979 2.75 5.4929 3.46116 4.22703 4.72703C2.96116 5.9929 2.25 7.70979 2.25 9.5Z" stroke="#718096" stroke-width="1.5" stroke-linecap="round" stroke-linejoin="round"/>
    <path d="M9 12.5V12.5067" stroke="#718096" stroke-width="1.5" stroke-linecap="round" stroke-linejoin="round"/>
    <path d="M9 10.25C9.33731 10.251 9.66512 10.1383 9.93049 9.93008C10.1959 9.72185 10.3833 9.43025 10.4625 9.10238C10.5418 8.7745 10.5082 8.42949 10.3672 8.12305C10.2262 7.81662 9.98605 7.56664 9.6855 7.41351C9.38713 7.26066 9.04583 7.21327 8.71711 7.27905C8.38839 7.34482 8.09159 7.51988 7.875 7.77576" stroke="#718096" stroke-width="1.5" stroke-linecap="round" stroke-linejoin="round"/>
  </g>
  <defs>
    <clipPath id="clip0_1_1710">
      <rect width="18" height="18" fill="white" transform="translate(0 0.5)"/>
    </clipPath>
  </defs>
</svg>