<svg width="102" height="36" viewBox="0 0 102 36" fill="none" xmlns="http://www.w3.org/2000/svg">
<g clip-path="url(#clip0_1_1787)">
<path d="M42.4841 8.14258C42.4841 7.84948 42.7204 7.61133 43.0111 7.61133H53.1877C55.2049 7.61133 56.7314 8.10594 57.7854 9.11349C58.8394 10.121 59.3664 11.5682 59.3664 13.4368C59.3664 14.5176 59.1665 15.4519 58.7667 16.2396C58.5123 16.7525 58.1852 17.1922 57.7854 17.5586C57.5309 17.7967 57.5673 18.2364 57.8762 18.4012C58.4941 18.7493 58.9847 19.1706 59.33 19.6836C59.8207 20.398 60.0751 21.4056 60.0751 22.6879C60.0751 24.7213 59.5117 26.2784 58.385 27.3409C57.2584 28.4034 55.6228 28.953 53.5148 28.953H43.0293C42.7385 28.953 42.5023 28.7148 42.5023 28.4217V8.14258H42.4841ZM51.6794 16.2945C53.3513 16.2945 54.1872 15.5068 54.1872 13.9131C54.1872 13.0704 53.9691 12.4476 53.5512 12.0629C53.1332 11.6598 52.4245 11.4583 51.4068 11.4583H48.0631C47.7723 11.4583 47.5361 11.6965 47.5361 11.9896V15.7816C47.5361 16.0747 47.7723 16.3129 48.0631 16.3129H51.6794V16.2945ZM52.1701 25.1426C53.115 25.1426 53.8056 24.9411 54.2417 24.5381C54.6779 24.1351 54.8959 23.4206 54.8959 22.4314C54.8959 21.5887 54.6779 20.9659 54.2236 20.5812C53.7692 20.1782 53.0242 19.9767 51.9702 19.9767H48.0631C47.7723 19.9767 47.5361 20.2148 47.5361 20.5079V24.6297C47.5361 24.9228 47.7723 25.161 48.0631 25.161H52.1701V25.1426Z" fill="#1A202C"/>
<path d="M63.5479 17.1918H62.4576C62.1487 17.1918 61.9124 16.9171 61.9488 16.6056L62.2759 13.7112C62.3122 13.4548 62.5303 13.2533 62.7847 13.2533H68.6181C68.9089 13.2533 69.1451 13.4914 69.1451 13.7845V28.4397C69.1451 28.7328 68.9089 28.971 68.6181 28.971H64.602C64.3112 28.971 64.075 28.7328 64.075 28.4397V17.7231C64.075 17.43 63.8387 17.1918 63.5479 17.1918ZM64.184 6.75H68.6544C68.9452 6.75 69.1814 6.98815 69.1814 7.28125V10.2489C69.1814 10.542 68.9452 10.7802 68.6544 10.7802H64.184C63.8932 10.7802 63.657 10.542 63.657 10.2489V7.28125C63.657 6.98815 63.8932 6.75 64.184 6.75Z" fill="#1A202C"/>
<path d="M74.4671 27.8169C73.5767 26.846 73.1224 25.472 73.1224 23.6768V17.8147C73.1224 17.5216 72.8861 17.2834 72.5954 17.2834H71.6322C71.3415 17.2834 71.1052 17.0453 71.1052 16.7522V13.7662C71.1052 13.4731 71.3415 13.2349 71.6322 13.2349H72.5954C72.8861 13.2349 73.1224 12.9968 73.1224 12.7037V10.3588C73.1224 10.1207 73.2859 9.91917 73.504 9.8459L77.5201 8.71012C77.8472 8.61852 78.1743 8.87499 78.1743 9.22305V12.7037C78.1743 12.9968 78.4106 13.2349 78.7013 13.2349H81.2455C81.5362 13.2349 81.7907 13.4914 81.7725 13.7845L81.6089 16.7705C81.5908 17.0453 81.3727 17.2651 81.0819 17.2651H78.7013C78.4106 17.2651 78.1743 17.5033 78.1743 17.7964V23.2921C78.1743 24.0431 78.3379 24.5744 78.6832 24.8675C79.0103 25.1606 79.5554 25.3072 80.3187 25.3072C80.7185 25.3072 81.1365 25.2522 81.5363 25.1606C81.8634 25.0873 82.1723 25.3255 82.1723 25.6735V28.2382C82.1723 28.458 82.0451 28.6595 81.827 28.7328C80.9002 29.0809 79.7917 29.2641 78.4833 29.2641C76.7024 29.2824 75.3576 28.7878 74.4671 27.8169Z" fill="#1A202C"/>
<path d="M84.6645 27.7074C83.6832 26.6632 83.2107 25.1244 83.2107 23.1276V13.7849C83.2107 13.4918 83.4469 13.2537 83.7377 13.2537H87.7538C88.0446 13.2537 88.2808 13.4918 88.2808 13.7849V22.8345C88.2808 23.7138 88.4807 24.355 88.8805 24.7763C89.2803 25.1794 89.8981 25.3809 90.7341 25.3809C91.3156 25.3809 91.8789 25.2526 92.4241 24.9962C92.8966 24.7763 93.3146 24.4832 93.6598 24.1352C93.7507 24.0436 93.8052 23.9153 93.8052 23.7688V13.7666C93.8052 13.4735 94.0415 13.2354 94.3322 13.2354H98.3483C98.6391 13.2354 98.8753 13.4735 98.8753 13.7666V28.4218C98.8753 28.7149 98.6391 28.9531 98.3483 28.9531H94.6048C94.3322 28.9531 94.1141 28.7516 94.096 28.4951C94.0596 28.1104 93.6235 27.9089 93.3146 28.1104C92.0425 28.8981 90.5342 29.2828 88.8078 29.2828C87.0087 29.2828 85.6276 28.7516 84.6645 27.7074Z" fill="#1A202C"/>
<path d="M17.5119 35.9875C14.427 36.0752 8.03347 35.7116 5.68252 34.2947C5.42131 34.1693 5.17253 34.0063 4.92375 33.8558C2.90865 32.5768 1.60257 30.7712 1.03038 28.4263C0.396 25.8433 0.109906 23.2226 0.0228339 20.5643C-0.138871 15.2226 0.458195 11.3103 1.12989 9.49216C2.11256 6.85893 3.82913 4.99059 6.27959 3.76175C6.95129 3.4232 7.64786 3.15987 8.35688 2.90909C16.0814 0.213166 27.8362 0.0501567 29.6895 0C29.9134 0 30.1249 0 30.3488 0.0125392C30.5478 0.0250784 30.7593 0.0250784 30.9459 0.0752351C30.8837 0.112853 30.809 0.125392 30.7468 0.163009C30.6598 0.213166 30.5603 0.263323 30.4732 0.326019C30.3986 0.376175 30.3488 0.451411 30.2742 0.514106C30.1125 0.626959 29.901 0.664577 29.7144 0.752351C28.2591 1.41693 26.841 2.1442 25.6594 3.24765C24.8384 4 24.8384 4.42633 25.6469 5.19122C26.244 5.74295 26.8659 6.31975 27.6123 6.63323C29.7144 7.51097 30.8464 9.32915 31.941 11.1348C33.2471 13.279 33.6202 15.7116 33.6824 18.2069C33.7322 20.3009 33.7197 22.4201 33.359 24.4639C33.4834 27.1724 32.0529 31.674 28.6198 34.0188C25.8957 35.8495 21.7909 35.8746 17.5119 35.9875Z" fill="#FF6D03"/>
<path d="M30.5735 0.927233C30.3745 1.10278 30.1381 1.22817 29.9267 1.37864C29.6032 1.62943 29.3545 1.91783 29.1057 2.24385C28.8445 2.58241 28.7076 3.04636 28.7823 3.47269C28.8694 3.98679 29.2425 4.28773 29.6406 4.5636C29.8147 4.67645 29.9391 4.80184 30.1257 4.90215C30.5486 5.12786 30.872 5.46642 31.2203 5.79244C32.2278 6.75795 32.8995 7.94918 33.3847 9.24071C34.1186 11.2094 34.5415 13.2533 34.5788 15.3598C34.6286 17.8175 34.6534 20.2627 34.4917 22.7078C34.3549 24.8269 34.0439 26.9335 33.3971 28.9648C33.0986 29.9053 32.6508 30.8959 32.0661 31.8112C30.9218 33.6294 29.0559 34.8583 26.9538 35.2344C25.5606 35.4852 21.8787 35.7987 21.6797 35.7987C23.0604 35.2595 24.7023 34.6326 26.0209 34.0056C27.0782 33.504 28.0484 32.8144 28.8818 31.9868C29.7401 31.1341 30.5984 30.294 31.2079 29.2407C32.0288 27.8363 32.7378 26.3818 33.0115 24.7391C33.111 24.1247 33.3598 21.2156 33.3598 20.9648C33.3598 19.7862 33.4344 18.6075 33.3473 17.4288C33.2105 15.5479 32.912 13.6921 32.0786 11.9617C31.78 11.3348 31.5686 10.7203 31.1705 10.131C30.7601 9.54165 30.2874 9.00247 29.7774 8.48836C29.1554 7.8614 28.3842 7.5103 27.6877 6.9962C27.2025 6.6451 26.6428 6.44447 26.1577 6.08084C25.2496 5.40372 24.3665 4.01187 25.4238 3.03382C26.1328 2.38178 26.9165 1.80498 27.7872 1.3661C28.2847 1.11532 28.7698 0.839459 29.2798 0.613754C29.5162 0.500901 29.7774 0.438205 30.0137 0.325352C30.1506 0.262657 30.2998 0.199961 30.4367 0.137265C30.5237 0.0996471 30.6232 0.0494904 30.7227 0.024412C30.8223 -0.000666338 30.9466 0.0118728 31.0586 0.0369512C31.6183 0.262656 30.7227 0.801841 30.5735 0.927233Z" fill="#F54D05"/>
<path d="M16.9903 33.2536C15.622 33.3665 14.2911 33.2536 12.9726 33.0655C10.7087 32.752 8.65626 31.8618 6.96458 30.2693C5.93215 29.2912 5.22313 28.0749 4.73802 26.7332C4.07876 24.9151 3.73047 23.0216 3.73047 21.0655C3.73047 19.3226 3.84242 17.6047 4.14095 15.8868C4.55143 13.542 5.65849 11.5984 7.46213 10.0687C7.86017 9.7301 8.23334 9.36647 8.64382 9.05299C9.68869 8.26302 10.8331 7.66114 12.1018 7.28496C13.5074 6.87117 14.9379 6.49499 16.3932 6.46992C17.8735 6.44484 19.3786 6.46992 20.8464 6.83355C21.2817 6.9464 21.7295 7.04672 22.1649 7.15957C24.2049 7.6486 25.909 8.75205 27.4638 10.1439C29.5163 11.9746 30.586 14.2693 30.897 16.9778C31.0214 18.0812 31.1333 19.1972 31.1582 20.3006C31.2204 22.7709 30.8596 25.2035 29.8397 27.4856C28.5087 30.4574 26.1204 32.1125 23.0605 32.8774C22.5007 33.0154 21.9037 33.0655 21.319 33.1031C19.8761 33.1658 18.4208 33.3915 16.9903 33.2536Z" fill="white"/>
<path d="M18.1493 19.2983C18.3857 18.1572 18.8832 17.2294 19.6793 16.4519C22.0178 14.1698 26.4212 14.9598 27.4536 18.5836C28.2124 21.292 26.5456 23.5616 24.2319 24.2638C21.6073 25.0663 18.933 23.524 18.2488 20.8532C18.2115 20.7278 18.2115 20.5899 18.1867 20.4645C18.112 20.1635 18.0747 20.1134 17.7015 20.1384C17.403 20.151 17.0174 19.988 16.893 20.4645C16.8681 20.5648 16.8557 20.6525 16.8308 20.7529C16.3706 22.6463 15.2013 23.8751 13.3355 24.3391C9.7531 25.2293 7.07874 22.2074 7.47679 19.3234C7.76288 17.2419 9.70334 15.2732 12.017 15.2105C13.9326 15.1478 16.2213 16.3641 16.7811 18.7717C16.9179 19.361 17.0423 19.3986 17.5647 19.3485C17.7389 19.3234 17.9006 19.3234 18.1493 19.2983Z" fill="#1A202C"/>
<path d="M17.5743 26.5582C16.9275 26.5331 16.206 26.3701 15.5219 26.044C15.1114 25.8434 14.7258 25.5926 14.5392 25.1412C14.477 24.9908 14.477 24.8152 14.6263 24.7024C14.7756 24.5895 14.9373 24.602 15.0741 24.7274C16.4175 26.0566 17.9724 25.9312 19.5894 25.4171C19.8631 25.3293 20.0994 25.1412 20.3109 24.9281C20.4228 24.8152 20.5596 24.7149 20.6965 24.6522C20.7711 24.6146 20.8955 24.6522 20.9701 24.6898C21.0821 24.7525 21.1443 24.8779 21.1194 25.0284C21.0945 25.2792 20.9328 25.4547 20.7587 25.5926C20.3606 25.9187 19.9253 26.2196 19.4028 26.345C18.8431 26.4578 18.2709 26.5456 17.5743 26.5582Z" fill="#1A202C"/>
<path d="M12.1789 23.6864C10.2135 23.6363 8.70842 22.3949 8.32281 20.514C8.08647 19.3479 8.37257 18.2695 9.14378 17.4043C10.6489 15.6864 13.4601 15.4105 15.1766 17.3165C16.8932 19.2225 16.2464 22.1441 13.9949 23.2726C13.4103 23.5736 12.7759 23.724 12.1789 23.6864Z" fill="white"/>
<path d="M22.8872 23.6623C20.1382 23.6498 18.2724 21.0416 19.168 18.5087C19.6531 17.1545 20.6731 16.4147 22.0041 16.0886C23.8699 15.6247 25.8477 16.6404 26.5443 18.4084C27.2906 20.2893 26.4447 22.4209 24.6287 23.2861C24.0814 23.5369 23.4843 23.6999 22.8872 23.6623Z" fill="white"/>
</g>
<defs>
<clipPath id="clip0_1_1787">
<rect width="101.887" height="36" fill="white"/>
</clipPath>
</defs>
</svg>
