<svg xmlns="http://www.w3.org/2000/svg" width="70" height="38" viewBox="0 0 70 38" fill="none">
  <g clip-path="url(#clip0_1_1719)">
    <path opacity="0.5" d="M69.4737 30.8402C68.7907 32.2644 67.3273 33.3649 66.0591 34.2064C63.0672 36.1809 59.3274 36.5693 55.8478 36.0838C53.8965 35.8248 52.173 35.3393 50.3844 34.5301C49.7665 34.2388 49.2137 33.9151 48.6608 33.5591C48.8234 33.3972 48.9535 33.203 49.0836 33.0412C48.8885 33.203 48.6933 33.3325 48.5307 33.4943C47.7828 34.0122 47.0673 34.5301 46.2868 35.0156C46.1893 35.0804 46.1242 35.1451 46.0267 35.1775C45.4738 35.5659 44.8885 35.8896 44.3031 36.2132C43.3926 36.6664 42.3519 36.9577 41.3763 37.2166C40.3032 37.4756 39.23 37.7022 38.1243 37.7345C37.1812 37.7669 36.2707 37.6698 35.3926 37.4756C34.1243 37.2814 32.8561 36.9253 31.7504 36.2456C31.0675 35.8572 30.4171 35.3717 29.9293 34.7567C29.6041 34.3359 29.3439 33.7857 28.9211 33.4296C29.0187 33.6886 29.1488 33.9151 29.2789 34.1417C29.5065 34.5625 29.7992 34.9185 30.1244 35.2746C29.2789 35.8572 28.2707 36.278 27.3927 36.6988C25.3764 37.6051 23.1326 38.1553 20.8887 37.9611C18.5797 37.7669 16.3359 37.0872 14.3521 35.8896C13.7017 35.5011 13.1164 35.0156 12.6286 34.4977C12.0432 33.9475 11.5554 33.2678 11.1652 32.5557C11.4253 33.1707 11.718 33.7857 12.0757 34.3359C11.2953 34.7243 10.4172 35.0156 9.63673 35.2746C8.17332 35.7277 6.54732 35.8572 5.0514 35.5011C2.12459 34.8538 0.205907 32.2967 0.0107869 29.3836C-0.151814 26.6647 1.53923 23.7516 4.04328 22.6188C5.47416 21.9714 7.13268 21.842 8.69365 22.1333C8.92129 22.1656 9.14893 22.2304 9.34405 22.2951C9.27901 22.5864 9.27901 22.8777 9.24649 23.169C9.27901 23.4927 9.27901 23.8164 9.37657 24.1401C9.50665 24.5932 9.63673 25.014 9.83185 25.4024C9.63673 24.2048 9.76681 23.0396 10.157 21.8743C10.2221 21.6801 10.2871 21.4859 10.3847 21.2917C10.4823 21.0004 10.6123 20.7091 10.7424 20.4178C11.7505 18.3462 13.7343 17.2457 15.6855 16.1452C17.7342 14.98 20.1082 14.6239 22.4171 15.0447C22.8399 15.1418 23.2301 15.2389 23.6204 15.3684C23.4252 16.3071 23.5878 17.3105 24.2057 18.2491C23.8155 16.9868 23.8805 15.595 24.5309 14.5268C24.8561 13.8471 25.3439 13.2321 25.9618 12.6495C26.0919 12.52 26.2545 12.3906 26.4171 12.2935C26.4171 12.2935 26.4171 12.3258 26.4496 12.3258H26.4821C26.5797 12.2611 26.6772 12.1964 26.8073 12.1316V12.0993C27.4902 11.7756 28.2707 11.6137 28.9536 11.4843C29.4415 11.3872 29.9618 11.3224 30.4821 11.3548C30.6122 11.3548 30.7097 11.3872 30.8398 11.4195C30.8398 11.4195 30.9049 11.4195 30.9374 11.4195C30.5797 11.2901 30.1894 11.2253 29.7992 11.2253C29.2138 11.2253 28.6285 11.2901 28.0756 11.3548C27.5553 11.4519 27.035 11.5814 26.5797 11.7432C26.0919 10.8369 25.8317 9.86588 25.7992 8.83011C25.7342 7.60014 25.8317 6.30543 26.3846 5.14019C26.9049 4.03968 27.6854 3.00391 28.5634 2.22709C30.4171 0.576333 32.7585 -0.232861 35.2625 0.0584484C37.2788 0.285023 39.5877 1.45026 40.4983 3.32759C39.8479 3.5218 39.23 3.81311 38.6772 4.13679C38.2869 4.39573 37.9292 4.68704 37.6365 5.04308C39.0024 3.91021 40.921 3.32759 42.7422 3.45706C44.6608 3.39233 46.5145 3.87784 48.0755 5.04308C49.8315 6.30543 51.4901 8.02092 52.2055 10.0925C52.4331 10.7074 52.5632 11.3224 52.6283 11.9698C52.7583 12.6171 52.7583 13.3292 52.7583 14.009C52.7583 14.1708 52.7583 14.365 52.7583 14.5268C52.8559 13.9766 52.8884 13.4263 52.8884 12.8761C52.9535 12.8761 52.986 12.8761 53.051 12.8437C54.1567 12.7142 55.2624 12.7466 56.3681 12.9408C58.4494 13.2969 60.5632 14.3326 61.9615 15.951C62.6444 16.7278 63.0997 17.6989 63.49 18.6699C63.9453 19.8028 63.9127 21.0975 63.5875 22.2627C63.555 22.4246 63.49 22.554 63.4574 22.6835H63.4249C62.8721 22.7482 62.3192 22.8777 61.7989 23.0396C61.5713 23.1043 61.3762 23.169 61.2461 23.3632H61.2786C61.2786 23.3632 61.3111 23.3632 61.3436 23.3309C61.7664 23.0396 62.4168 23.0072 62.9046 22.9748C63.2623 22.9748 63.62 22.9425 63.9452 22.9748C64.6282 23.0072 65.3436 23.1367 65.994 23.3309C67.5875 23.8164 68.9208 24.9816 69.5712 26.5029C70.1891 27.8624 70.1241 29.4807 69.4737 30.8402Z" fill="white"/>
  </g>
  <defs>
    <clipPath id="clip0_1_1719">
      <rect width="70" height="38" fill="white"/>
    </clipPath>
  </defs>
</svg>