<svg xmlns="http://www.w3.org/2000/svg" width="106" height="58" viewBox="0 0 106 58" fill="none">
  <g clip-path="url(#clip0_1_1711)">
    <path d="M99.0193 34.1909C97.9912 33.9482 96.882 33.8673 95.8268 33.8943C95.8539 33.8134 95.908 33.7056 95.9351 33.6247C96.5032 31.9529 96.7196 29.8497 96.1515 28.1779C95.5563 26.4522 94.6905 24.7534 93.5001 23.3783C91.2546 20.7897 87.8998 19.3336 84.5721 18.8752C82.8136 18.6326 81.055 18.7674 79.2965 19.064C79.2965 17.7428 79.1071 16.3945 78.7824 15.1003C77.9167 11.6758 75.1842 8.68278 72.3434 6.68743C69.3404 4.58422 65.6339 4.26065 62.1438 5.04261C61.7921 5.12351 61.4134 5.23136 61.0616 5.33922C59.7901 2.50798 56.5706 0.836198 53.6216 0.242985C51.6466 -0.161478 49.4823 -0.0266568 47.5614 0.512627C45.7217 1.02495 44.1525 2.02262 42.6916 3.26298C41.2577 4.4494 40.1484 6.12118 39.3097 7.766C38.3899 9.5726 38.2275 11.7028 38.3087 13.6981C38.3628 15.3429 38.9039 16.772 39.7697 18.1203C39.3638 18.336 38.958 18.6056 38.6063 18.9022C37.443 19.9269 36.5502 21.2481 36.1714 22.6772C35.7115 22.4885 35.2515 22.2997 34.7646 22.1649C32.9248 21.6256 31.0851 21.4908 29.1913 21.5986C27.3786 21.7065 25.593 22.4076 23.9698 23.2165C20.6691 24.8613 17.5308 26.8027 15.8263 30.2272C15.3934 31.09 15.0958 32.0877 14.9065 33.1393C14.6089 33.0584 14.2842 32.9775 13.9866 32.9236C11.6058 32.4382 9.19794 32.627 6.9524 33.5438C2.92127 35.1347 0.296969 39.6646 0.0534772 43.8711C-0.217069 48.7516 3.35414 53.0389 7.95343 54.2523C10.2801 54.8725 12.9315 54.5759 15.177 53.7939C16.6109 53.2816 18.0448 52.6884 19.3434 51.8255C20.0198 52.7423 20.8044 53.5512 21.7513 54.3062C24.6461 56.6251 28.3797 57.6767 32.032 57.9464C33.7906 58.0812 35.4139 57.9194 37.1183 57.461C37.957 57.2183 38.8227 57.1105 39.6614 56.8408C40.5542 56.5442 41.3929 56.1398 42.2046 55.7353C43.5573 55.0882 44.9912 54.2523 46.1004 53.2276C46.5333 53.6321 46.9932 54.0366 47.4802 54.3871C50.1045 56.3555 53.2699 57.461 56.5435 57.5149C59.9524 57.5689 63.3072 56.7869 66.3914 55.3848C68.6369 54.3871 70.5578 52.8501 72.2352 51.0705C74.9948 53.1198 78.3225 54.441 81.7043 55.0882C84.3557 55.6005 86.8988 55.8162 89.6043 55.6275C92.2015 55.4117 94.6905 54.8185 97.0443 53.74C100.994 51.9334 105.323 48.455 105.972 43.925C106.54 39.2872 103.402 35.2695 99.0193 34.1909Z" fill="#DAD4CD"/>
    <path d="M103.808 46.1352C102.78 48.2384 100.643 49.8563 98.7222 51.1236C94.3123 54.0627 88.7661 54.6289 83.6257 53.9279C80.7579 53.5234 78.1877 52.8493 75.5634 51.6089C74.6706 51.1775 73.832 50.6922 73.0203 50.1529C73.2367 49.9102 73.4532 49.6405 73.6696 49.3709C73.3991 49.6136 73.1015 49.8293 72.8309 50.018C71.7487 50.8 70.6666 51.555 69.5303 52.2561C69.395 52.337 69.2597 52.4179 69.1244 52.4988C68.3128 53.065 67.4471 53.5773 66.5543 54.0088C65.1745 54.6829 63.6865 55.1143 62.1985 55.4918C60.6293 55.8962 59.0331 56.2198 57.4098 56.2737C56.03 56.3277 54.6773 56.1929 53.3787 55.8962C51.4848 55.6266 49.6181 55.0873 47.9677 54.0896C46.9667 53.4964 45.9927 52.7954 45.2623 51.8786C44.7753 51.2584 44.3965 50.4495 43.7743 49.9372C43.9366 50.2877 44.0989 50.6382 44.2883 50.9888C44.64 51.582 45.0729 52.1482 45.5328 52.6605C44.3424 53.5504 42.8815 54.1705 41.5558 54.7637C38.5527 56.085 35.225 56.9209 31.9243 56.6512C28.5155 56.3816 25.1877 55.33 22.2388 53.5773C21.2648 52.9841 20.4261 52.31 19.6957 51.5011C18.8299 50.6652 18.0994 49.6945 17.5313 48.6429C17.883 49.5597 18.3429 50.4495 18.884 51.2584C17.6936 51.8516 16.4221 52.283 15.2316 52.6605C13.0673 53.3346 10.6865 53.5504 8.44094 53.038C4.13925 52.0404 1.27146 48.2654 1.02797 43.9511C0.78448 39.9065 3.30056 35.5922 6.97999 33.9204C9.1173 32.9497 11.5522 32.7879 13.8519 33.1654C14.1765 33.2194 14.5012 33.3002 14.7988 33.3811C14.7447 33.8395 14.6906 34.2979 14.6906 34.7563C14.7176 35.2417 14.7447 35.727 14.8799 36.1854C15.0423 36.8326 15.2858 37.4527 15.5292 38.0459C15.2858 36.2663 15.4481 34.5406 16.0162 32.7879C16.1244 32.4913 16.2327 32.1947 16.3679 31.9251C16.5303 31.4936 16.6926 31.0622 16.909 30.6578C18.4241 27.5838 21.373 25.939 24.2138 24.3481C27.2439 22.6494 30.761 22.0831 34.1699 22.7303C34.7921 22.8381 35.3873 23.0269 35.9555 23.2156C35.6849 24.6447 35.9014 26.1278 36.7942 27.449C36.2531 25.6155 36.3342 23.5122 37.2812 21.9214C37.7681 20.9237 38.4986 20.0069 39.3914 19.144C39.6079 18.9553 39.8243 18.7935 40.0678 18.6317C40.0678 18.6587 40.0948 18.6587 40.0948 18.6856L40.1219 18.6587C40.2842 18.5508 40.4736 18.4699 40.6359 18.389C40.6359 18.3621 40.6089 18.3621 40.6089 18.3351C41.6099 17.8767 42.7733 17.6071 43.7743 17.4183C44.5318 17.2565 45.3164 17.1487 46.101 17.2296C46.2904 17.2296 46.4527 17.2835 46.615 17.3105C46.6691 17.3105 46.7232 17.3105 46.7773 17.3105C46.2362 17.1217 45.6681 17.0139 45.0458 17.0139C44.1801 17.0139 43.3143 17.0948 42.4756 17.2026C41.7181 17.3374 40.9876 17.5262 40.3113 17.7958C39.5808 16.4476 39.2291 15.0185 39.1479 13.4546C39.0668 11.5941 39.2291 9.67961 40.0407 7.98086C40.7983 6.38997 41.9616 4.82605 43.2873 3.63963C46.0469 1.18588 49.4828 -0.000542343 53.1893 0.430885C56.1923 0.754455 59.5742 2.48016 60.954 5.28444C60.007 5.58105 59.0872 6.01247 58.2485 6.49783C57.6803 6.90229 57.1663 7.30676 56.7064 7.84604C58.7084 6.17426 61.5762 5.31141 64.2546 5.47319C67.0954 5.36533 69.8279 6.12033 72.1546 7.81908C74.7248 9.67961 77.2138 12.2412 78.2689 15.2882C78.5936 16.2049 78.783 17.1217 78.8912 18.0655C79.1076 19.0362 79.1076 20.0878 79.1076 21.0585C79.1076 21.3012 79.1076 21.5708 79.0806 21.8135C79.2158 21.0046 79.2699 20.1956 79.297 19.3867C79.3782 19.3867 79.4323 19.3598 79.5134 19.3598C81.1637 19.171 82.76 19.198 84.4103 19.4946C87.5216 20.0339 90.6329 21.5708 92.7161 23.9706C93.7442 25.1301 94.3935 26.5592 94.9887 27.9613C95.6921 29.6331 95.5839 31.5476 95.1239 33.2733C95.0698 33.489 94.9887 33.7047 94.9075 33.9204C94.9075 33.9204 94.8804 33.9204 94.8534 33.9204C94.0418 34.0013 93.2301 34.244 92.4185 34.4597C92.0668 34.5676 91.7962 34.6485 91.5798 34.9181C91.6068 34.9181 91.6068 34.9181 91.6339 34.9181C91.6609 34.9181 91.688 34.8911 91.7151 34.8911C92.3373 34.4327 93.3113 34.4058 94.0147 34.3788C94.5287 34.3519 95.0428 34.3249 95.5568 34.3519C96.5849 34.3788 97.613 34.5945 98.5869 34.8911C100.941 35.6461 102.916 37.3449 103.89 39.6099C104.864 41.7131 104.782 44.1129 103.808 46.1352Z" fill="white"/>
    <path opacity="0.3" d="M53.0519 12.5384C53.0249 13.1316 53.1061 13.59 53.2954 14.0215C53.2413 12.2149 54.3776 10.0577 55.541 8.81737C56.055 8.27809 56.5961 7.8197 57.1642 7.41523C57.4889 7.09166 57.8677 6.82202 58.2464 6.55238C59.1122 6.06702 60.005 5.66256 60.9519 5.33899C60.6543 4.69185 60.2214 4.1256 59.7344 3.61328C56.6502 4.1256 53.2954 8.08934 53.0519 12.5384Z" fill="#F0E7DB"/>
    <path opacity="0.3" d="M40.364 17.8504C41.0674 17.5538 41.7979 17.392 42.5283 17.2572C43.367 17.1493 44.2328 17.0684 45.0985 17.0684C45.5855 17.0684 46.0454 17.1224 46.5054 17.2572C48.0745 17.392 49.6166 17.8234 51.0776 18.3897C52.7279 19.0368 54.2971 19.8457 55.6498 20.9513C52.7009 16.4752 46.3701 13.8597 41.392 16.0168C41.2568 16.0708 41.0403 16.0708 40.9592 15.909C39.9581 13.617 39.6064 10.9206 39.9581 8.33203C39.2547 9.94988 39.1194 11.7834 39.2006 13.5361C39.2818 15.0731 39.6335 16.5022 40.364 17.8504Z" fill="#F0E7DB"/>
    <path opacity="0.5" d="M103.971 39.6378C102.97 37.3728 100.995 35.6741 98.668 34.9191C97.6941 34.6225 96.666 34.4068 95.6379 34.3798C95.1239 34.3528 94.6098 34.3798 94.0958 34.4068C93.3924 34.4337 92.4184 34.4607 91.7962 34.9191C91.7691 34.9191 91.7421 34.946 91.715 34.946C91.6879 34.946 91.6609 34.946 91.6609 34.946C91.8773 34.6764 92.1479 34.5685 92.4996 34.4876C93.2842 34.2719 94.0958 34.0293 94.9345 33.9484C94.9615 33.9484 94.9615 33.9484 94.9615 33.9484C95.0427 33.7326 95.1239 33.5169 95.178 33.3012C95.6379 31.5755 95.7191 29.6341 95.0427 27.9893C94.4475 26.5602 93.7982 25.158 92.7701 23.9986C91.0116 21.9763 88.5225 20.5741 85.9524 19.873C88.7931 21.6796 91.1198 24.0795 91.228 27.8005C91.2821 30.3891 90.741 33.6248 89.3071 36.1055C89.8212 36.0246 90.3623 35.9437 90.8763 35.8898C93.1218 35.6201 95.5026 35.2696 97.667 36.0785C99.3985 36.7257 100.048 38.3705 99.5338 40.0962C98.7492 42.6578 96.8283 44.5992 94.4205 45.7317C89.6318 47.9697 83.9774 47.7001 79.0264 46.0823C75.6986 45.0037 72.398 43.224 70.1795 40.5276C67.7987 45.4081 63.2806 48.9674 57.3556 49.0753C50.592 49.2101 42.9896 45.0306 40.7982 38.4514C40.8523 40.6085 41.5016 42.7926 42.3674 44.5453C42.4485 44.7071 42.3944 44.8958 42.2591 45.0037C37.4164 48.0776 27.4873 51.3133 21.6976 48.8865C18.5322 47.5653 17.0442 44.788 15.7456 41.3635C15.4751 43.7364 16.0432 46.3519 16.936 48.8865C17.0172 49.1022 16.2055 49.2371 16.0162 49.264C11.958 49.7494 7.03403 49.318 4.03097 46.1901C2.4618 44.5183 1.73132 42.523 1.6231 40.4198C1.27139 41.5792 1.08201 42.7657 1.16318 43.9521C1.43372 48.2933 4.30151 52.0683 8.57614 53.039C10.7946 53.5513 13.2025 53.3356 15.3669 52.6615C16.5573 52.284 17.8288 51.8526 19.0192 51.2594C18.4781 50.4505 18.0182 49.5606 17.6665 48.6439C18.2346 49.6955 18.9922 50.6392 19.8309 51.5021C20.5613 52.284 21.4 52.9851 22.374 53.5783C25.323 55.3579 28.6507 56.3826 32.0596 56.6522C35.3602 56.9219 38.6879 56.086 41.691 54.7647C43.0167 54.1715 44.4776 53.5513 45.668 52.6615C45.2081 52.1492 44.7752 51.6099 44.4235 50.9897C44.2341 50.6392 44.0447 50.2887 43.9095 49.9381C44.5317 50.4505 44.9105 51.2594 45.3975 51.8796C46.128 52.7963 47.1019 53.4974 48.1029 54.0906C49.7262 55.0613 51.62 55.6006 53.5139 55.8972C54.8395 56.1938 56.1652 56.3287 57.545 56.2747C59.1683 56.2208 60.7916 55.8703 62.3337 55.4928C63.8217 55.1153 65.3097 54.6838 66.6895 54.0097C67.5823 53.5783 68.448 53.066 69.2597 52.4997C69.3949 52.4188 69.5302 52.3379 69.6655 52.257C70.7747 51.556 71.8839 50.801 72.9661 50.019C73.2367 49.8303 73.5343 49.6146 73.8048 49.3719C73.5884 49.6415 73.372 49.9112 73.1555 50.1538C73.9672 50.6931 74.8058 51.1785 75.6987 51.6099C78.323 52.8233 80.8931 53.5244 83.7609 53.9288C88.9013 54.6299 94.4475 54.0637 98.8574 51.1246C100.778 49.8572 102.916 48.2394 103.944 46.1362C104.782 44.1139 104.864 41.7141 103.971 39.6378Z" fill="#F0E7DB"/>
  </g>
  <defs>
    <clipPath id="clip0_1_1711">
      <rect width="106" height="58" fill="white"/>
    </clipPath>
  </defs>
</svg>